<!-- Generated by IcoMoon.io -->
<svg version="1.1" xmlns="http://www.w3.org/2000/svg" width="64" height="64" viewBox="0 0 64 64">
<title>compass2</title>
<path d="M32 0c-17.673 0-32 14.327-32 32s14.327 32 32 32 32-14.327 32-32-14.327-32-32-32zM6 32c0-14.359 11.641-26 26-26 6.848 0 13.077 2.649 17.721 6.977l-25.721 11.023-11.023 25.721c-4.328-4.644-6.977-10.873-6.977-17.721zM36.573 36.573l-16.005 6.859 6.859-16.005 9.146 9.146zM32 58c-6.848 0-13.077-2.649-17.721-6.977l25.721-11.023 11.023-25.721c4.328 4.644 6.977 10.872 6.977 17.721 0 14.359-11.641 26-26 26z"></path>
</svg>
