<!-- Generated by IcoMoon.io -->
<svg version="1.1" xmlns="http://www.w3.org/2000/svg" width="64" height="64" viewBox="0 0 64 64">
<title>database</title>
<path d="M32 0c-17.673 0-32 4.477-32 10v8c0 5.523 14.327 10 32 10s32-4.477 32-10v-8c0-5.523-14.327-10-32-10z"></path>
<path d="M32 34c-17.673 0-32-4.477-32-10v12c0 5.523 14.327 10 32 10s32-4.477 32-10v-12c0 5.523-14.327 10-32 10z"></path>
<path d="M32 52c-17.673 0-32-4.477-32-10v12c0 5.523 14.327 10 32 10s32-4.477 32-10v-12c0 5.523-14.327 10-32 10z"></path>
</svg>
