<!-- Generated by IcoMoon.io -->
<svg version="1.1" xmlns="http://www.w3.org/2000/svg" width="64" height="64" viewBox="0 0 64 64">
<title>calculator</title>
<path d="M24 4h-20c-2.2 0-4 1.8-4 4v20c0 2.2 1.8 4 4 4h20c2.2 0 4-1.8 4-4v-20c0-2.2-1.8-4-4-4zM24 20h-20v-4h20v4zM56 4h-20c-2.2 0-4 1.8-4 4v52c0 2.2 1.8 4 4 4h20c2.2 0 4-1.8 4-4v-52c0-2.2-1.8-4-4-4zM56 40h-20v-4h20v4zM56 28h-20v-4h20v4zM24 36h-20c-2.2 0-4 1.8-4 4v20c0 2.2 1.8 4 4 4h20c2.2 0 4-1.8 4-4v-20c0-2.2-1.8-4-4-4zM24 52h-8v8h-4v-8h-8v-4h8v-8h4v8h8v4z"></path>
</svg>
