<!-- Generated by IcoMoon.io -->
<svg version="1.1" xmlns="http://www.w3.org/2000/svg" width="64" height="64" viewBox="0 0 64 64">
<title>move-up</title>
<path d="M44 32v24h4v-24h10l-12-12-12 12z"></path>
<path d="M4 12h6v4h-6v-4z"></path>
<path d="M12 12h6v4h-6v-4z"></path>
<path d="M20 12h4v6h-4v-6z"></path>
<path d="M4 26h4v6h-4v-6z"></path>
<path d="M10 28h6v4h-6v-4z"></path>
<path d="M18 28h6v4h-6v-4z"></path>
<path d="M4 18h4v6h-4v-6z"></path>
<path d="M20 20h4v6h-4v-6z"></path>
<path d="M20 44v12h-12v-12h12zM24 40h-20v20h20v-20z"></path>
</svg>
